<mxfile host="app.diagrams.net" modified="2023-02-23T20:35:08.792Z" agent="5.0 (Windows)" etag="OzSVh3QD2YagKrQgXPyk" version="20.8.23" type="github">
  <diagram name="Page-1" id="wpBAy0d6-JKJUzAO7_tA">
    <mxGraphModel dx="2534" dy="1646" grid="1" gridSize="10" guides="1" tooltips="1" connect="1" arrows="1" fold="1" page="1" pageScale="1" pageWidth="1100" pageHeight="850" math="0" shadow="0">
      <root>
        <mxCell id="0" />
        <mxCell id="1" parent="0" />
        <mxCell id="4oQygGd5F-jImhbLc5P--1" value="&lt;div&gt;START&lt;/div&gt;" style="rounded=1;whiteSpace=wrap;html=1;fontSize=16;arcSize=50;" parent="1" vertex="1">
          <mxGeometry x="-531" y="-207" width="110" height="45" as="geometry" />
        </mxCell>
        <mxCell id="4oQygGd5F-jImhbLc5P--2" value="END" style="rounded=1;whiteSpace=wrap;html=1;fontSize=16;arcSize=50;" parent="1" vertex="1">
          <mxGeometry x="4" y="571" width="110" height="45" as="geometry" />
        </mxCell>
        <mxCell id="4oQygGd5F-jImhbLc5P--3" value="video capture &amp;amp; read" style="rounded=0;whiteSpace=wrap;html=1;fontSize=16;" parent="1" vertex="1">
          <mxGeometry x="-571" y="-128" width="194" height="36" as="geometry" />
        </mxCell>
        <mxCell id="4oQygGd5F-jImhbLc5P--53" value="YES" style="edgeStyle=none;rounded=0;orthogonalLoop=1;jettySize=auto;html=1;fontSize=12;startSize=8;endSize=8;exitX=0;exitY=0.5;exitDx=0;exitDy=0;entryX=1;entryY=0.5;entryDx=0;entryDy=0;" parent="1" source="4oQygGd5F-jImhbLc5P--16" target="4oQygGd5F-jImhbLc5P--24" edge="1">
          <mxGeometry relative="1" as="geometry">
            <mxPoint x="-300" y="370" as="sourcePoint" />
            <Array as="points">
              <mxPoint x="-380" y="347" />
            </Array>
          </mxGeometry>
        </mxCell>
        <mxCell id="4oQygGd5F-jImhbLc5P--16" value="&lt;div&gt;if eraser is &lt;br&gt;&lt;/div&gt;&lt;div&gt;selected&lt;br&gt;&lt;/div&gt;" style="rhombus;whiteSpace=wrap;html=1;fontSize=16;" parent="1" vertex="1">
          <mxGeometry x="-291" y="308.5" width="150" height="77" as="geometry" />
        </mxCell>
        <mxCell id="4oQygGd5F-jImhbLc5P--19" value="WRITE" style="rounded=0;whiteSpace=wrap;html=1;fontSize=16;" parent="1" vertex="1">
          <mxGeometry x="-37" y="329" width="194" height="36" as="geometry" />
        </mxCell>
        <mxCell id="4oQygGd5F-jImhbLc5P--56" value="YES" style="edgeStyle=none;curved=1;rounded=0;orthogonalLoop=1;jettySize=auto;html=1;fontSize=12;startSize=8;endSize=8;exitX=0;exitY=0.5;exitDx=0;exitDy=0;" parent="1" source="4oQygGd5F-jImhbLc5P--32" edge="1">
          <mxGeometry x="-0.7321" y="-15" relative="1" as="geometry">
            <mxPoint x="-80" y="450" as="sourcePoint" />
            <mxPoint x="-120" y="445" as="targetPoint" />
            <mxPoint as="offset" />
          </mxGeometry>
        </mxCell>
        <mxCell id="4oQygGd5F-jImhbLc5P--20" value="&lt;b&gt;clear screen&lt;/b&gt;" style="rounded=0;whiteSpace=wrap;html=1;fontSize=16;" parent="1" vertex="1">
          <mxGeometry x="-313" y="427" width="194" height="36" as="geometry" />
        </mxCell>
        <mxCell id="4oQygGd5F-jImhbLc5P--21" value="selection mode" style="rounded=0;whiteSpace=wrap;html=1;fontSize=16;" parent="1" vertex="1">
          <mxGeometry x="-310" y="231" width="194" height="36" as="geometry" />
        </mxCell>
        <mxCell id="4oQygGd5F-jImhbLc5P--22" value="Pen active" style="rounded=0;whiteSpace=wrap;html=1;fontSize=16;" parent="1" vertex="1">
          <mxGeometry x="-38" y="128" width="194" height="40" as="geometry" />
        </mxCell>
        <mxCell id="4oQygGd5F-jImhbLc5P--23" value="object detection" style="rounded=0;whiteSpace=wrap;html=1;fontSize=16;" parent="1" vertex="1">
          <mxGeometry x="-573" y="-42" width="194" height="36" as="geometry" />
        </mxCell>
        <mxCell id="4oQygGd5F-jImhbLc5P--24" value="ERASER" style="rounded=0;whiteSpace=wrap;html=1;fontSize=16;" parent="1" vertex="1">
          <mxGeometry x="-590" y="329" width="194" height="36" as="geometry" />
        </mxCell>
        <mxCell id="4oQygGd5F-jImhbLc5P--26" value="count &amp;amp; track fingers" style="rounded=0;whiteSpace=wrap;html=1;fontSize=16;" parent="1" vertex="1">
          <mxGeometry x="-573" y="130" width="194" height="36" as="geometry" />
        </mxCell>
        <mxCell id="4oQygGd5F-jImhbLc5P--27" value="&lt;div&gt;RESULT&lt;/div&gt;" style="rounded=0;whiteSpace=wrap;html=1;fontSize=16;" parent="1" vertex="1">
          <mxGeometry x="-35" y="512" width="194" height="36" as="geometry" />
        </mxCell>
        <mxCell id="4oQygGd5F-jImhbLc5P--30" value="&lt;div&gt;if a finger is &lt;br&gt;&lt;/div&gt;&lt;div&gt;detected&lt;br&gt;&lt;/div&gt;" style="rhombus;whiteSpace=wrap;html=1;fontSize=16;" parent="1" vertex="1">
          <mxGeometry x="-291" y="110" width="150" height="77" as="geometry" />
        </mxCell>
        <mxCell id="4oQygGd5F-jImhbLc5P--31" value="is hand detected " style="rhombus;whiteSpace=wrap;html=1;fontSize=16;" parent="1" vertex="1">
          <mxGeometry x="-551" y="20" width="150" height="77" as="geometry" />
        </mxCell>
        <mxCell id="4oQygGd5F-jImhbLc5P--32" value="if &#39;c&#39; is pressed" style="rhombus;whiteSpace=wrap;html=1;fontSize=16;" parent="1" vertex="1">
          <mxGeometry x="-16" y="406" width="150" height="77" as="geometry" />
        </mxCell>
        <mxCell id="4oQygGd5F-jImhbLc5P--36" value="&lt;div&gt;if movement &lt;br&gt;&lt;/div&gt;&lt;div&gt;detected&lt;br&gt;&lt;/div&gt;" style="rhombus;whiteSpace=wrap;html=1;fontSize=16;" parent="1" vertex="1">
          <mxGeometry x="-16" y="209.5" width="150" height="77" as="geometry" />
        </mxCell>
        <mxCell id="4oQygGd5F-jImhbLc5P--37" style="edgeStyle=none;curved=1;rounded=0;orthogonalLoop=1;jettySize=auto;html=1;exitX=0;exitY=1;exitDx=0;exitDy=0;fontSize=12;startSize=8;endSize=8;" parent="1" source="4oQygGd5F-jImhbLc5P--32" target="4oQygGd5F-jImhbLc5P--32" edge="1">
          <mxGeometry relative="1" as="geometry" />
        </mxCell>
        <mxCell id="4oQygGd5F-jImhbLc5P--39" value="" style="endArrow=classic;html=1;rounded=0;fontSize=12;startSize=8;endSize=8;curved=1;exitX=0.5;exitY=1;exitDx=0;exitDy=0;" parent="1" source="4oQygGd5F-jImhbLc5P--1" edge="1">
          <mxGeometry width="50" height="50" relative="1" as="geometry">
            <mxPoint x="-476" y="-147" as="sourcePoint" />
            <mxPoint x="-476" y="-128" as="targetPoint" />
          </mxGeometry>
        </mxCell>
        <mxCell id="4oQygGd5F-jImhbLc5P--40" value="" style="endArrow=classic;html=1;rounded=0;fontSize=12;startSize=8;endSize=8;curved=1;" parent="1" edge="1">
          <mxGeometry width="50" height="50" relative="1" as="geometry">
            <mxPoint x="-476.5" y="-92" as="sourcePoint" />
            <mxPoint x="-476.5" y="-43" as="targetPoint" />
          </mxGeometry>
        </mxCell>
        <mxCell id="4oQygGd5F-jImhbLc5P--41" value="" style="endArrow=classic;html=1;rounded=0;fontSize=12;startSize=8;endSize=8;curved=1;" parent="1" edge="1">
          <mxGeometry width="50" height="50" relative="1" as="geometry">
            <mxPoint x="-476.5" y="-6" as="sourcePoint" />
            <mxPoint x="-476.5" y="20" as="targetPoint" />
          </mxGeometry>
        </mxCell>
        <mxCell id="4oQygGd5F-jImhbLc5P--42" value="&lt;div&gt;YES&lt;/div&gt;" style="endArrow=classic;html=1;rounded=0;fontSize=12;startSize=8;endSize=8;curved=1;" parent="1" edge="1">
          <mxGeometry x="-0.2212" y="16" width="50" height="50" relative="1" as="geometry">
            <mxPoint x="-476.5" y="97" as="sourcePoint" />
            <mxPoint x="-476" y="131" as="targetPoint" />
            <mxPoint as="offset" />
          </mxGeometry>
        </mxCell>
        <mxCell id="4oQygGd5F-jImhbLc5P--43" value="" style="endArrow=classic;html=1;rounded=0;fontSize=12;startSize=8;endSize=8;curved=1;exitX=1;exitY=0.5;exitDx=0;exitDy=0;" parent="1" source="4oQygGd5F-jImhbLc5P--26" edge="1">
          <mxGeometry width="50" height="50" relative="1" as="geometry">
            <mxPoint x="-333" y="127" as="sourcePoint" />
            <mxPoint x="-289" y="148" as="targetPoint" />
          </mxGeometry>
        </mxCell>
        <mxCell id="4oQygGd5F-jImhbLc5P--44" value="YES" style="endArrow=classic;html=1;rounded=0;fontSize=12;startSize=8;endSize=8;curved=1;entryX=0;entryY=0.5;entryDx=0;entryDy=0;exitX=1;exitY=0.5;exitDx=0;exitDy=0;" parent="1" source="4oQygGd5F-jImhbLc5P--30" target="4oQygGd5F-jImhbLc5P--22" edge="1">
          <mxGeometry width="50" height="50" relative="1" as="geometry">
            <mxPoint x="-116" y="130" as="sourcePoint" />
            <mxPoint x="-116" y="179" as="targetPoint" />
          </mxGeometry>
        </mxCell>
        <mxCell id="4oQygGd5F-jImhbLc5P--45" value="NO" style="endArrow=classic;html=1;rounded=0;fontSize=12;startSize=8;endSize=8;curved=1;exitX=0.5;exitY=1;exitDx=0;exitDy=0;" parent="1" edge="1" source="4oQygGd5F-jImhbLc5P--30">
          <mxGeometry x="-0.4699" width="50" height="50" relative="1" as="geometry">
            <mxPoint x="-210" y="200" as="sourcePoint" />
            <mxPoint x="-216.5" y="230.5" as="targetPoint" />
            <Array as="points" />
            <mxPoint as="offset" />
          </mxGeometry>
        </mxCell>
        <mxCell id="4oQygGd5F-jImhbLc5P--46" value="NO" style="endArrow=classic;html=1;rounded=0;fontSize=12;startSize=8;endSize=8;exitX=1;exitY=0.5;exitDx=0;exitDy=0;entryX=1;entryY=0.5;entryDx=0;entryDy=0;" parent="1" source="4oQygGd5F-jImhbLc5P--36" target="4oQygGd5F-jImhbLc5P--22" edge="1">
          <mxGeometry x="-0.8897" y="8" width="50" height="50" relative="1" as="geometry">
            <mxPoint x="-57" y="196" as="sourcePoint" />
            <mxPoint x="160" y="148" as="targetPoint" />
            <Array as="points">
              <mxPoint x="240" y="248" />
              <mxPoint x="240" y="148" />
            </Array>
            <mxPoint as="offset" />
          </mxGeometry>
        </mxCell>
        <mxCell id="4oQygGd5F-jImhbLc5P--47" value="" style="endArrow=classic;html=1;rounded=0;fontSize=12;startSize=8;endSize=8;curved=1;entryX=0.5;entryY=0;entryDx=0;entryDy=0;" parent="1" edge="1" target="4oQygGd5F-jImhbLc5P--16">
          <mxGeometry width="50" height="50" relative="1" as="geometry">
            <mxPoint x="-216.5" y="267" as="sourcePoint" />
            <mxPoint x="-216.5" y="316" as="targetPoint" />
          </mxGeometry>
        </mxCell>
        <mxCell id="4oQygGd5F-jImhbLc5P--48" value="&lt;div&gt;YES&lt;/div&gt;" style="endArrow=classic;html=1;rounded=0;fontSize=12;startSize=8;endSize=8;curved=1;exitX=0.5;exitY=1;exitDx=0;exitDy=0;" parent="1" source="4oQygGd5F-jImhbLc5P--36" edge="1">
          <mxGeometry width="50" height="50" relative="1" as="geometry">
            <mxPoint x="59.5" y="280" as="sourcePoint" />
            <mxPoint x="59.5" y="329" as="targetPoint" />
          </mxGeometry>
        </mxCell>
        <mxCell id="4oQygGd5F-jImhbLc5P--49" value="" style="endArrow=classic;html=1;rounded=0;fontSize=12;startSize=8;endSize=8;curved=1;entryX=0.5;entryY=0;entryDx=0;entryDy=0;" parent="1" edge="1">
          <mxGeometry width="50" height="50" relative="1" as="geometry">
            <mxPoint x="59" y="169" as="sourcePoint" />
            <mxPoint x="59" y="210.5" as="targetPoint" />
          </mxGeometry>
        </mxCell>
        <mxCell id="4oQygGd5F-jImhbLc5P--50" value="" style="endArrow=classic;html=1;rounded=0;fontSize=12;startSize=8;endSize=8;curved=1;" parent="1" edge="1">
          <mxGeometry width="50" height="50" relative="1" as="geometry">
            <mxPoint x="59.5" y="365" as="sourcePoint" />
            <mxPoint x="59.5" y="406.5" as="targetPoint" />
          </mxGeometry>
        </mxCell>
        <mxCell id="4oQygGd5F-jImhbLc5P--58" value="NO" style="edgeStyle=none;curved=1;rounded=0;orthogonalLoop=1;jettySize=auto;html=1;fontSize=12;startSize=8;endSize=8;entryX=0.5;entryY=0;entryDx=0;entryDy=0;" parent="1" edge="1">
          <mxGeometry x="-0.5983" y="21" relative="1" as="geometry">
            <mxPoint x="59" y="484" as="sourcePoint" />
            <mxPoint x="58.5" y="512" as="targetPoint" />
            <mxPoint as="offset" />
          </mxGeometry>
        </mxCell>
        <mxCell id="4oQygGd5F-jImhbLc5P--59" value="" style="edgeStyle=none;curved=1;rounded=0;orthogonalLoop=1;jettySize=auto;html=1;fontSize=12;startSize=8;endSize=8;entryX=0.5;entryY=0;entryDx=0;entryDy=0;" parent="1" edge="1">
          <mxGeometry relative="1" as="geometry">
            <mxPoint x="59" y="551" as="sourcePoint" />
            <mxPoint x="59" y="571" as="targetPoint" />
          </mxGeometry>
        </mxCell>
        <mxCell id="4oQygGd5F-jImhbLc5P--60" value="NO" style="endArrow=classic;html=1;rounded=0;fontSize=12;startSize=8;endSize=8;entryX=1;entryY=0.5;entryDx=0;entryDy=0;" parent="1" target="4oQygGd5F-jImhbLc5P--3" edge="1">
          <mxGeometry x="-0.9232" y="9" width="50" height="50" relative="1" as="geometry">
            <mxPoint x="-401" y="59" as="sourcePoint" />
            <mxPoint x="-351" y="9" as="targetPoint" />
            <Array as="points">
              <mxPoint x="-200" y="59" />
              <mxPoint x="-200" y="-110" />
            </Array>
            <mxPoint as="offset" />
          </mxGeometry>
        </mxCell>
        <mxCell id="nfhWg-ZAN6cc5TRInI4Y-1" value="NO" style="endArrow=classic;html=1;rounded=0;fontSize=12;startSize=8;endSize=8;exitX=1;exitY=0.5;exitDx=0;exitDy=0;entryX=1;entryY=0.5;entryDx=0;entryDy=0;" edge="1" parent="1" source="4oQygGd5F-jImhbLc5P--16" target="4oQygGd5F-jImhbLc5P--21">
          <mxGeometry x="-0.6804" y="-3" width="50" height="50" relative="1" as="geometry">
            <mxPoint x="-119" y="350" as="sourcePoint" />
            <mxPoint x="-80" y="250" as="targetPoint" />
            <Array as="points">
              <mxPoint x="-80" y="347" />
              <mxPoint x="-80" y="250" />
            </Array>
            <mxPoint as="offset" />
          </mxGeometry>
        </mxCell>
      </root>
    </mxGraphModel>
  </diagram>
</mxfile>
